<svg width="1024" height="1024" version="1.1" xmlns="http://www.w3.org/2000/svg" desc="Created with imagetracer.js version 1.2.6" ><path fill="rgb(0,0,0)" stroke="rgb(0,0,0)" stroke-width="1" opacity="0" d="M 0 0 L 1024 0 L 1024 1024 L 0 1024 L 0 0 Z M 261 216 L 250 219 L 241 224 Q 231 232 226 244 L 222 257 L 221 271 L 220 272 L 220 295 L 221 296 L 223 316 L 225 321 L 224 324 L 226 324 Q 234 357 252 382 L 244 414 Q 245 418 243 417 L 243 419 L 242 427 L 241 425 L 240 425 L 241 429 L 239 446 L 236 447 L 238 447 L 236 469 L 235 470 L 235 478 L 234 479 L 234 488 L 233 487 L 232 490 L 232 492 L 233 494 L 232 516 L 232 518 L 231 519 L 231 540 L 230 543 Q 229 550 232 553 L 239 561 L 242 562 L 252 575 L 306 631 Q 305 633 308 632 L 330 657 Q 329 659 332 658 L 344 671 L 355 704 Q 356 706 353 705 L 354 707 L 356 706 L 369 746 L 368 749 L 370 748 L 375 763 L 374 765 L 376 765 L 377 769 L 382 773 L 465 814 L 465 816 L 467 815 L 512 837 L 517 836 L 560 815 L 645 772 L 647 770 L 651 760 L 679 673 L 682 668 L 685 667 Q 684 664 687 665 L 736 612 L 741 607 L 743 607 L 742 606 L 745 602 L 748 600 L 748 599 L 785 560 L 787 557 L 793 552 L 794 550 L 794 531 L 795 530 L 793 527 L 793 508 L 792 507 L 791 487 L 791 485 L 792 482 L 791 482 L 788 458 L 787 457 L 783 427 L 776 395 L 772 383 L 772 381 Q 781 370 787 356 L 795 336 L 801 314 L 802 303 L 803 302 L 803 289 L 804 288 L 803 265 L 801 254 Q 798 241 791 232 L 781 222 L 764 216 L 743 217 L 722 223 Q 691 237 668 258 L 665 258 L 667 257 L 667 256 L 664 257 L 637 246 L 603 236 L 577 231 L 555 229 Q 553 225 552 228 L 522 227 L 521 226 L 517 227 L 517 225 L 516 227 L 512 226 L 510 227 L 508 227 L 504 226 L 503 227 L 471 228 L 454 231 L 447 231 L 441 233 L 438 232 L 436 234 L 411 239 L 380 249 L 360 258 L 357 258 Q 340 243 321 232 Q 307 224 290 219 Q 286 220 287 217 L 286 217 Q 287 219 284 218 Q 282 214 281 217 Q 273 214 261 216 Z M 737 216 L 737 217 L 739 217 L 737 216 Z M 432 232 L 432 233 L 435 233 L 432 232 Z M 590 232 L 590 233 L 592 233 L 590 232 Z M 421 233 L 420 236 L 421 236 L 421 233 Z M 622 240 L 622 241 L 624 241 L 622 240 Z M 219 272 L 218 275 L 219 275 L 219 272 Z M 219 283 Q 219 286 217 285 L 217 286 Q 219 285 218 289 L 219 289 L 219 283 Z M 220 302 Q 218 305 221 304 L 220 302 Z M 225 325 L 224 328 L 225 328 L 225 325 Z M 227 331 L 225 333 L 227 333 L 227 331 Z M 233 350 L 233 353 Q 236 352 233 350 Z M 237 357 L 235 359 L 238 359 L 237 357 Z M 250 380 L 248 382 L 250 382 L 251 383 L 250 380 Z M 245 402 L 245 405 Q 248 404 245 402 Z M 242 418 L 241 421 L 242 421 L 242 418 Z M 234 474 L 232 478 L 234 478 L 234 474 Z M 792 474 L 791 479 L 792 479 L 792 474 Z M 233 479 L 232 482 L 233 482 L 233 479 Z M 230 527 L 229 530 L 230 530 L 230 527 Z M 250 573 L 248 575 L 250 575 L 250 573 Z M 334 662 L 335 664 Q 336 661 334 662 Z M 342 669 L 340 671 L 342 671 L 342 669 Z M 355 707 L 353 709 L 355 709 L 355 707 Z M 355 710 L 356 712 Q 357 709 355 710 Z M 358 716 L 357 719 L 358 719 L 358 716 Z M 361 725 L 360 728 L 362 728 L 361 725 Z M 376 771 L 376 773 L 379 773 L 380 773 L 376 771 Z M 395 781 L 395 782 L 397 782 L 395 781 Z M 408 788 L 408 790 L 410 789 L 408 788 Z M 613 789 L 614 791 Q 615 788 613 789 Z M 474 820 L 474 822 L 477 822 L 474 820 Z " /><path fill="rgb(196,160,70)" stroke="rgb(196,160,70)" stroke-width="1" opacity="0.9803921568627451" d="M 260.5 216 Q 272.6 214.4 280.5 217 L 284 216.5 L 283.5 218 Q 286.8 219.1 286 216.5 L 287 216.5 Q 285.8 220.3 289.5 219 L 293.5 220 Q 295.3 216.3 297 219.5 L 294 220.5 L 300 222 L 300.5 220 L 301 221.5 L 300.5 223 L 316.5 230 L 318 229.5 L 317.5 231 L 323.5 234 L 325 233.5 L 324.5 235 L 334.5 241 L 336 240.5 Q 333.8 241.8 336.5 243 L 340.5 245 L 342 244.5 Q 339.3 246.3 343.5 248 L 355.5 257 L 357 256.5 L 356.5 258 L 360 257.5 L 358 256.5 L 359.5 256 L 361.5 257 Q 380.4 247.4 403 241.5 L 401 240.5 L 402.5 240 L 406.5 241 Q 419.1 235.6 435.5 234 L 437.5 232 L 440.5 233 L 446.5 231 L 453.5 231 L 470.5 228 L 502.5 227 L 503.5 226 L 507.5 227 L 509.5 227 L 511.5 226 L 516 227 L 516.5 225 L 517 227 L 520.5 226 L 521.5 227 L 543 227 L 543.5 225 L 544 226.5 L 543.5 228 L 551.5 228 L 552.5 227 L 555 227.5 L 554.5 229 L 562.5 229 L 563.5 230 L 588.5 233 L 591.5 232 L 591.5 233 L 589 233.5 L 609.5 238 L 611 237.5 L 610.5 239 L 620.5 241 L 623.5 240 L 623.5 241 L 621 241.5 L 636.5 246 L 638 245.5 L 637.5 247 L 644.5 249 L 646 248.5 L 645.5 250 L 659.5 255 L 661 254.5 L 660.5 256 L 663.5 257 L 666.5 256 L 666.5 257 L 665 257.5 L 667.5 258 L 683 245.5 L 681.5 243 L 684.5 245 L 689 241.5 L 688.5 240 L 690.5 241 L 697 236.5 L 696.5 235 L 698.5 235 L 715 226.5 L 712 225.5 L 713.5 224 L 716 224.5 L 715.5 226 L 724 222.5 L 723.5 221 L 726.5 222 L 733 219.5 L 732.5 218 L 736.5 219 L 748.5 216 L 763.5 216 L 780.5 222 L 782 221.5 Q 779.8 222.8 782.5 224 L 784.5 225 Q 785.8 222.7 787 225.5 L 786 226.5 L 791 231.5 L 794.5 237 L 796 236.5 L 795 238.5 L 799 246.5 L 802 258.5 L 803 275.5 L 804 276.5 L 804 287.5 L 803 288.5 L 803 301.5 L 800 318.5 L 795 335.5 L 787 355.5 L 789 355.5 L 786 356.5 L 783 363.5 L 783.5 365 L 782 364.5 L 772 380.5 L 772 382.5 L 776 394.5 L 783 426.5 L 787 456.5 L 788 457.5 L 790.5 482 L 792 481.5 L 791 484.5 L 791 486.5 L 792 506.5 L 793 507.5 L 793 526.5 L 795 529.5 L 794 530.5 L 794 549.5 L 793 552 L 787 556.5 L 785 559.5 Q 781.9 561.3 783.5 563 Q 781.7 560.3 780 564.5 L 780.5 566 L 779.5 565 L 773 571.5 L 759 587.5 L 759.5 589 L 758.5 588 L 748 598.5 Q 748.8 600.8 746.5 600 L 742 605.5 L 742.5 607 L 740.5 607 L 736 611.5 L 719 630.5 L 719.5 632 L 718.5 631 L 706 643.5 L 701 649.5 L 701.5 651 L 700.5 650 L 689 661.5 L 690 663.5 Q 688.3 661.9 686.5 665 Q 684.3 664.3 685 666.5 L 686 668.5 L 685 668.5 L 684.5 667 L 682 668 L 679 672.5 L 671 699.5 L 672 701.5 L 671 701.5 L 670.5 700 L 663 723.5 L 663.5 725 L 662 724.5 L 655 747.5 L 655.5 749 L 654 748.5 L 655 751.5 L 653 751.5 L 648 767.5 L 644.5 772 L 626 781.5 L 628 782.5 L 626.5 783 L 624.5 782 L 624.5 784 L 622.5 783 L 612 788.5 L 614 789 L 613.5 791 L 611 790.5 L 611.5 789 L 600 794.5 L 600.5 796 L 598.5 795 L 594 797.5 L 595 799.5 L 594 799.5 Q 594.8 797.3 592.5 798 L 560 814.5 L 560.5 816 L 557.5 815 L 527 830.5 L 529 831.5 L 527.5 832 L 525.5 831 Q 520.4 835.9 511.5 837 L 492.5 828 L 491 828.5 L 491.5 827 L 481.5 823 L 480 823.5 L 480.5 822 L 477.5 821 L 477.5 823 L 474 822 Q 472.9 819.3 475.5 820 L 475.5 819 L 466.5 815 L 464.5 816 L 464.5 814 L 457.5 811 L 456 811.5 L 456.5 810 L 445.5 805 L 444 805.5 L 444.5 804 L 431.5 798 L 428.5 800 L 427 798.5 L 428.5 796 L 397.5 781 L 394.5 782 L 394.5 781 L 397 780.5 L 389.5 777 L 388 777.5 L 388.5 776 L 380.5 772 L 378.5 773 L 376 772.5 Q 375.2 769.9 378.5 771 L 377.5 769 L 376 769.5 L 377 767.5 L 376 765 L 374 764.5 L 375 762.5 L 373.5 759 L 372 759.5 L 373 756.5 L 370.5 751 Q 369.3 753.2 368 750.5 L 370 750.5 L 369.5 748 L 368 748.5 L 369 745.5 L 364.5 733 L 363.5 735 L 363 733.5 L 364 730.5 L 362.5 727 L 360 728 L 360.5 725 L 361.5 727 L 362 724.5 L 356 706 L 354 706.5 L 355 709 L 353 708.5 L 353 706.5 L 355 703.5 L 345 675.5 L 345 672.5 L 342.5 669 L 342 671 L 340 670.5 L 342 668.5 L 337.5 664 L 336 664.5 Q 338.3 663.3 335.5 662 L 334.5 664 L 333.5 662 L 335 661.5 L 330 658 L 329.5 656 Q 328.3 658.3 327 655.5 Q 329.3 654.3 326.5 653 Q 325.3 655.3 324 652.5 L 326 652.5 L 307.5 632 Q 305.3 632.8 306 630.5 L 260.5 583 L 258.5 584 L 258.5 583 L 260 582.5 L 245.5 567 L 243.5 568 L 243.5 567 L 245 566.5 L 242 564.5 L 241.5 566 L 241 564.5 L 242 562 L 239 560.5 L 233.5 554 L 232 554.5 L 232 552.5 L 230.5 549 L 229 549.5 L 231 541.5 L 231 539.5 L 231 518.5 L 232 517.5 L 232 515.5 L 233 493.5 L 232 491.5 L 232 489.5 L 232.5 487 L 234 487.5 L 234 478.5 L 232.5 478 L 233 476.5 L 233.5 474 L 234.5 478 L 238 447 L 236 446.5 L 239 446 L 241 428.5 L 240 424.5 L 241 424.5 L 241.5 427 L 243 418.5 L 242 418.5 L 240.5 422 L 241 420.5 L 242.5 417 Q 245.5 417.9 244 413.5 L 243.5 412 L 245 412.5 L 244 407.5 L 246 407.5 L 245.5 404 L 244 404.5 L 245.5 401 L 246.5 404 L 252 381.5 L 251 381.5 L 250.5 383 L 248 381.5 L 251 380.5 L 238.5 358 L 235.5 359 L 236.5 357 L 238 357.5 L 233.5 347 L 232 347.5 L 233 345.5 L 229.5 337 L 228.5 339 L 227 335.5 L 228 335.5 L 228.5 337 L 229 334.5 L 227.5 331 L 227 333 L 225 332.5 L 227 328.5 L 226 324 L 224 323.5 L 225 320.5 L 223 315.5 L 221.5 303 L 219 304 L 219.5 302 L 221 302.5 L 220.5 295 L 219 295.5 L 220 294.5 L 220 271.5 L 224 248.5 Q 228.5 235 238 226.5 L 236 225.5 L 238.5 224 L 240.5 224 L 249 219.5 L 248 217.5 L 249 217.5 Q 248.2 220.1 251.5 219 L 260.5 216 Z M 264 245 L 261 246 Q 255 250 252 258 L 249 272 L 249 294 L 254 321 Q 264 354 284 378 L 274 413 L 268 443 L 265 469 L 264 470 L 264 477 L 263 478 L 263 486 L 262 487 L 260 523 L 259 524 L 259 539 L 262 543 L 370 658 L 400 751 L 512 806 L 623 752 L 624 751 L 640 700 L 643 694 L 653 660 L 766 539 L 764 501 L 763 500 L 763 491 L 762 490 L 762 481 L 761 480 L 759 458 L 750 411 L 741 382 L 741 378 Q 755 359 765 337 L 771 319 L 775 298 L 775 270 L 772 258 L 769 252 L 762 245 L 752 245 L 743 247 L 720 257 Q 694 272 673 292 L 665 290 L 639 278 L 612 269 L 577 261 L 559 259 L 558 258 L 550 258 L 549 257 L 537 257 L 536 256 L 484 256 L 483 257 L 474 257 L 473 258 L 452 260 L 409 270 L 373 283 L 355 292 Q 350 293 349 290 Q 327 270 300 255 L 277 246 L 264 245 Z " /><path fill="rgb(196,160,70)" stroke="rgb(196,160,70)" stroke-width="1" opacity="0.9803921568627451" d="M 736.5 216 L 739 216.5 L 735.5 218 L 736.5 216 Z " /><path fill="rgb(196,160,70)" stroke="rgb(196,160,70)" stroke-width="1" opacity="0.9803921568627451" d="M 309.5 224 L 310.5 226 L 309.5 224 Z " /><path fill="rgb(196,160,70)" stroke="rgb(196,160,70)" stroke-width="1" opacity="0.9803921568627451" d="M 484.5 224 L 485.5 226 L 484.5 224 Z " /><path fill="rgb(196,160,70)" stroke="rgb(196,160,70)" stroke-width="1" opacity="0.9803921568627451" d="M 533.5 224 L 536 225.5 L 534.5 226 L 532.5 226 L 531 225.5 L 533.5 224 Z " /><path fill="rgb(196,160,70)" stroke="rgb(196,160,70)" stroke-width="1" opacity="0.9803921568627451" d="M 431.5 232 L 435 232.5 L 431.5 233 L 431.5 232 Z " /><path fill="rgb(196,160,70)" stroke="rgb(196,160,70)" stroke-width="1" opacity="0.9803921568627451" d="M 420.5 233 L 421 235.5 L 420 235.5 L 420.5 233 Z " /><path fill="rgb(196,160,70)" stroke="rgb(196,160,70)" stroke-width="1" opacity="0.9803921568627451" d="M 647.5 248 L 648.5 250 L 647.5 248 Z " /><path fill="rgb(196,160,70)" stroke="rgb(196,160,70)" stroke-width="1" opacity="0.9803921568627451" d="M 650.5 249 L 651.5 251 L 650.5 249 Z " /><path fill="rgb(196,160,70)" stroke="rgb(196,160,70)" stroke-width="1" opacity="0.9803921568627451" d="M 218.5 272 L 219 274.5 L 218 274.5 L 218.5 272 Z " /><path fill="rgb(196,160,70)" stroke="rgb(196,160,70)" stroke-width="1" opacity="0.9803921568627451" d="M 218.5 283 L 219 288.5 L 218 288.5 Q 219.1 285.2 216.5 286 L 216.5 285 Q 219 285.7 218.5 283 Z " /><path fill="rgb(196,160,70)" stroke="rgb(196,160,70)" stroke-width="1" opacity="0.9803921568627451" d="M 460.5 307 Q 478.8 305.7 485 316.5 L 489 326.5 L 489 333.5 Q 486.7 344.2 478.5 349 Q 472.3 353.8 459.5 352 Q 450.8 348.8 446 341.5 L 443 332.5 L 443 327.5 Q 444.7 316.2 452.5 311 L 460.5 307 Z " /><path fill="rgb(196,160,70)" stroke="rgb(196,160,70)" stroke-width="1" opacity="0.9803921568627451" d="M 552.5 307 Q 570.8 305.7 577 316.5 Q 581.4 322.1 581 332.5 Q 578.6 343.6 570.5 349 Q 564.3 353.8 551.5 352 Q 543.5 349.5 539 343.5 Q 533 337.5 535 323.5 Q 537.5 315.5 543.5 311 L 552.5 307 Z " /><path fill="rgb(196,160,70)" stroke="rgb(196,160,70)" stroke-width="1" opacity="0.9803921568627451" d="M 224.5 325 L 225 327.5 L 224 327.5 L 224.5 325 Z " /><path fill="rgb(196,160,70)" stroke="rgb(196,160,70)" stroke-width="1" opacity="0.9803921568627451" d="M 797.5 334 L 796.5 336 L 797.5 334 Z " /><path fill="rgb(196,160,70)" stroke="rgb(196,160,70)" stroke-width="1" opacity="0.9803921568627451" d="M 232.5 350 Q 235.5 351.5 232.5 353 L 232.5 350 Z " /><path fill="rgb(196,160,70)" stroke="rgb(196,160,70)" stroke-width="1" opacity="0.9803921568627451" d="M 242.5 371 L 244 371.5 L 241.5 373 L 242.5 371 Z " /><path fill="rgb(196,160,70)" stroke="rgb(196,160,70)" stroke-width="1" opacity="0.9803921568627451" d="M 428.5 380 Q 429.8 382.3 434.5 381 L 445 387.5 Q 452 393.5 451 407.5 Q 448.4 418.9 439.5 424 L 430.5 427 L 425.5 427 Q 415.3 425.3 410 418.5 L 406 411.5 L 405 400.5 Q 406.9 388.9 415.5 384 L 428.5 380 Z " /><path fill="rgb(196,160,70)" stroke="rgb(196,160,70)" stroke-width="1" opacity="0.9803921568627451" d="M 505.5 381 L 518.5 381 Q 526.5 383.5 531 389.5 Q 537 395.5 535 409.5 Q 532.5 417.5 526.5 422 L 515.5 427 L 509.5 427 L 502.5 425 L 495 420 L 490 411.5 L 489 399.5 Q 491.8 389.3 499.5 384 L 505.5 381 Z " /><path fill="rgb(196,160,70)" stroke="rgb(196,160,70)" stroke-width="1" opacity="0.9803921568627451" d="M 589.5 381 Q 599 379.5 604.5 382 Q 612 385 616 391.5 Q 620.5 397 619 408.5 Q 617.1 417.6 610.5 422 Q 604.6 427.1 593.5 427 Q 581.9 425.1 577 416.5 Q 572.8 411.2 573 401.5 Q 575 389.5 583.5 384 L 589.5 381 Z " /><path fill="rgb(196,160,70)" stroke="rgb(196,160,70)" stroke-width="1" opacity="0.9803921568627451" d="M 324 452 L 417 486 L 442 555.5 L 442 599.5 L 443 602 Q 440 603.3 441 599.5 L 431 575.5 L 403 522 L 388.5 520 L 369.5 512 Q 354.9 503.5 345 490.5 Q 331.4 473.9 324 452 Z " /><path fill="rgb(196,160,70)" stroke="rgb(196,160,70)" stroke-width="1" opacity="0.9803921568627451" d="M 699.5 452 L 701 452.5 Q 693.6 470.6 683 485.5 L 664.5 505 Q 654.6 513.1 641.5 518 Q 632.6 521.8 621 522 L 594 573.5 L 583 598.5 L 583 602 L 581 601.5 L 582 600.5 L 582 554.5 L 607 486 L 699.5 452 Z " /><path fill="rgb(196,160,70)" stroke="rgb(196,160,70)" stroke-width="1" opacity="0.9803921568627451" d="M 791.5 474 L 792 478.5 L 791 478.5 L 791.5 474 Z " /><path fill="rgb(196,160,70)" stroke="rgb(196,160,70)" stroke-width="1" opacity="0.9803921568627451" d="M 232.5 479 L 233 481.5 L 232 481.5 L 232.5 479 Z " /><path fill="rgb(196,160,70)" stroke="rgb(196,160,70)" stroke-width="1" opacity="0.9803921568627451" d="M 229.5 527 L 230 529.5 L 229 529.5 L 229.5 527 Z " /><path fill="rgb(196,160,70)" stroke="rgb(196,160,70)" stroke-width="1" opacity="0.9803921568627451" d="M 249.5 573 L 250 575 L 248 574.5 L 249.5 573 Z " /><path fill="rgb(196,160,70)" stroke="rgb(196,160,70)" stroke-width="1" opacity="0.9803921568627451" d="M 445.5 638 L 579 638.5 L 512.5 709 L 458 652.5 L 445.5 638 Z " /><path fill="rgb(196,160,70)" stroke="rgb(196,160,70)" stroke-width="1" opacity="0.9803921568627451" d="M 319.5 647 L 320.5 649 L 319.5 647 Z " /><path fill="rgb(196,160,70)" stroke="rgb(196,160,70)" stroke-width="1" opacity="0.9803921568627451" d="M 354.5 710 Q 356.8 709.3 356 711.5 L 354.5 710 Z " /><path fill="rgb(196,160,70)" stroke="rgb(196,160,70)" stroke-width="1" opacity="0.9803921568627451" d="M 357.5 716 L 358 718.5 L 357 718.5 L 357.5 716 Z " /><path fill="rgb(196,160,70)" stroke="rgb(196,160,70)" stroke-width="1" opacity="0.9803921568627451" d="M 408 788 L 410 788.5 L 408 789.5 L 408 788 Z " /><path fill="rgb(196,160,70)" stroke="rgb(196,160,70)" stroke-width="1" opacity="0.9803921568627451" d="M 603.5 794 L 602.5 796 L 603.5 794 Z " /><path fill="rgb(15,16,14)" stroke="rgb(15,16,14)" stroke-width="1" opacity="0.996078431372549" d="M 263.5 245 L 276.5 246 L 299.5 255 Q 326.7 269.8 348.5 290 Q 349.9 292.6 354.5 292 L 372.5 283 L 408.5 270 L 451.5 260 L 472.5 258 L 473.5 257 L 482.5 257 L 483.5 256 L 535.5 256 L 536.5 257 L 548.5 257 L 549.5 258 L 557.5 258 L 558.5 259 L 576.5 261 L 611.5 269 L 638.5 278 L 664.5 290 L 672.5 292 Q 693.9 272.4 719.5 257 L 742.5 247 L 751.5 245 L 761.5 245 L 769 251.5 L 772 257.5 L 775 269.5 L 775 297.5 L 771 318.5 L 765 336.5 Q 755.4 359.4 741 377.5 L 741 381.5 L 750 410.5 L 759 457.5 L 761 479.5 L 762 480.5 L 762 489.5 L 763 490.5 L 763 499.5 L 764 500.5 L 766 538.5 L 653 659.5 L 643 693.5 L 640 699.5 L 624 750.5 L 622.5 752 L 511.5 806 L 400 750.5 L 370 657.5 L 262 542.5 L 259 538.5 L 259 523.5 L 260 522.5 L 262 486.5 L 263 485.5 L 263 477.5 L 264 476.5 L 264 469.5 L 265 468.5 L 268 442.5 L 274 412.5 L 284 377.5 Q 264 354 254 320.5 L 249 293.5 L 249 271.5 L 252 257.5 Q 254.6 250.1 260.5 246 L 263.5 245 Z M 461 307 L 453 311 Q 445 316 443 328 L 443 333 L 446 342 Q 451 349 460 352 Q 472 354 479 349 Q 487 344 489 334 L 489 327 L 485 317 Q 479 306 461 307 Z M 553 307 L 544 311 Q 538 316 535 324 Q 533 338 539 344 Q 543 350 552 352 Q 564 354 571 349 Q 579 344 581 333 Q 581 322 577 317 Q 571 306 553 307 Z M 429 380 L 416 384 Q 407 389 405 401 L 406 412 L 410 419 Q 415 425 426 427 L 431 427 L 440 424 Q 448 419 451 408 Q 452 394 445 388 L 435 381 Q 430 382 429 380 Z M 506 381 L 500 384 Q 492 389 489 400 L 490 412 L 495 420 L 503 425 L 510 427 L 516 427 L 527 422 Q 533 418 535 410 Q 537 396 531 390 Q 527 383 519 381 L 506 381 Z M 590 381 L 584 384 Q 575 389 573 402 Q 573 411 577 417 Q 582 425 594 427 Q 605 427 611 422 Q 617 418 619 409 Q 621 397 616 392 Q 612 385 605 382 Q 599 380 590 381 Z M 324 452 Q 331 474 345 491 Q 355 504 370 512 L 389 520 L 403 522 L 431 576 L 441 600 Q 440 603 443 602 L 442 600 L 442 556 L 417 486 L 324 452 Z M 700 452 L 607 486 L 582 555 L 582 601 L 581 602 L 583 602 L 583 599 L 594 574 L 621 522 Q 633 522 642 518 Q 655 513 665 505 L 683 486 Q 694 471 701 453 L 700 452 Z M 446 638 L 458 653 L 513 709 L 579 639 L 446 638 Z " /></svg>