<svg width="3125" height="621" version="1.1" xmlns="http://www.w3.org/2000/svg" desc="Created with imagetracer.js version 1.2.6" ><path fill="rgb(0,0,0)" stroke="rgb(0,0,0)" stroke-width="1" opacity="0" d="M 0 0 L 40 0.5 L 30 4 Q 31.3 7 27.5 6 L 22 10 L 22 12 L 20 12 L 20 14 Q 17.3 12.9 18 15.5 L 14 19.5 L 6 33.5 L 0.5 61 L 0 0 Z " /><path fill="rgb(0,0,0)" stroke="rgb(0,0,0)" stroke-width="1" opacity="0" d="M 59.5 0 L 526 0.5 Q 522.6 3.1 515.5 2 L 513.5 4 L 509.5 4 L 497.5 10 L 494 10 L 494 12 L 490 12 Q 491.3 15 487.5 14 L 462 30 Q 463.1 32.7 460.5 32 L 454 36 L 454 38 L 452 38 L 450 42 L 447.5 42 Q 446.8 44.8 442.5 44 Q 431.7 37.3 417.5 34 L 415.5 32 L 412.5 32 L 391.5 24 Q 386.2 24.8 384.5 22 L 378.5 22 L 375.5 20 L 369.5 20 L 366.5 18 L 359.5 18 L 355.5 16 Q 346.5 17.5 342.5 14 L 329.5 14 L 324.5 12 L 260.5 12 Q 254.4 15.9 242.5 14 L 239.5 16 L 231.5 16 Q 228.9 19.4 221.5 18 L 219.5 20 L 211.5 20 Q 210 23.5 203.5 22 L 201.5 24 L 196.5 24 L 194.5 26 L 189.5 26 L 181.5 30 Q 176.2 29.2 174.5 32 L 169.5 32 L 167.5 34 L 163.5 34 L 161.5 36 L 157.5 36 L 145.5 42 L 139.5 43 L 122.5 30 L 110.5 22 L 108 22 Q 109.3 19 105.5 20 L 93.5 12 L 86.5 10 L 80.5 6 L 69.5 2 L 62.5 2 L 59.5 1 L 59.5 0 Z " /><path fill="rgb(0,0,0)" stroke="rgb(0,0,0)" stroke-width="1" opacity="0" d="M 543.5 0 L 3124.5 0 L 3125 0.5 L 3125 429.5 L 3124 429.5 L 3124 423.5 L 3122 415.5 L 3117 402.5 Q 3107.7 384.3 3092.5 372 L 3080.5 363 L 3062.5 353 L 3020.5 336 Q 3005.1 329.9 2994 321 L 2987 310.5 L 2986 297.5 L 2991 287 L 3000.5 281 L 3010.5 278 Q 3015.2 279.3 3016.5 277 L 3035.5 277 L 3049.5 280 L 3060.5 284 L 3085.5 298 L 3119 242.5 Q 3106.3 233.3 3090.5 227 L 3058.5 217 L 3053.5 217 L 3046.5 215 L 3037.5 215 L 3036.5 214 L 3004.5 214 L 2982.5 218 L 2956.5 229 Q 2941 238 2930 251.5 Q 2922.4 260.4 2918 272.5 L 2915 284.5 L 2914 304.5 L 2919 329.5 Q 2927.3 349.2 2942.5 362 L 2967.5 379 L 3027.5 406 Q 3039 412 3047 421.5 Q 3054 429 3052 445.5 Q 3049.2 454.7 3042.5 460 L 3027.5 467 Q 3022.8 465.8 3021.5 468 L 2998.5 468 Q 2956.8 460.7 2928.5 440 L 2894 498.5 Q 2906.6 508.4 2922.5 515 L 2950.5 525 L 2966.5 529 L 2972.5 529 L 2979.5 531 L 2988.5 531 L 2989.5 532 L 3025.5 532 L 3026.5 531 L 3045.5 529 L 3068.5 522 Q 3089.5 513.5 3104 498.5 Q 3114 488 3120 473.5 Q 3123.8 465.3 3124.5 454 L 3125 621 L 294 620.5 L 403.5 566 L 415.5 559 L 425 549.5 L 431 538.5 Q 439.3 508.3 451 481.5 L 459 454.5 L 573 333.5 L 573 316.5 L 572 315.5 L 571 284.5 L 570 283.5 L 570 273.5 L 569 272.5 L 569 261.5 L 568 260.5 L 567 244.5 L 566 243.5 L 566 237.5 L 565 236.5 L 561 206.5 L 551 168.5 L 551 159.5 Q 567.8 137.3 577 107.5 L 582 83.5 L 583 57.5 L 582 56.5 L 581 45.5 L 575 28.5 Q 570.4 17.1 561.5 10 L 556.5 6 L 543.5 1 L 543.5 0 Z M 2322 206 L 2322 527 L 2323 527 L 2393 527 L 2393 228 L 2392 227 L 2392 207 L 2392 206 L 2322 206 Z M 2694 214 L 2666 219 L 2646 226 Q 2624 236 2607 250 Q 2579 273 2564 308 L 2555 336 L 2552 353 L 2552 364 L 2551 365 L 2552 394 L 2553 395 L 2555 412 L 2560 430 Q 2571 460 2590 482 Q 2612 507 2646 521 L 2672 529 L 2683 530 L 2684 531 L 2692 531 L 2693 532 L 2727 532 L 2755 527 Q 2791 516 2816 494 Q 2840 472 2854 441 L 2863 414 L 2866 397 L 2866 390 L 2867 389 L 2867 359 L 2866 358 L 2866 350 L 2862 329 Q 2851 292 2829 267 Q 2806 240 2772 225 L 2758 220 L 2734 215 Q 2727 217 2726 214 L 2694 214 Z M 710 219 L 710 527 L 779 527 L 779 412 L 836 412 L 837 411 L 849 410 Q 879 403 899 385 Q 911 373 919 357 L 925 338 L 926 325 L 927 324 L 927 304 L 923 283 Q 917 262 903 249 Q 892 237 877 230 L 857 223 L 841 220 L 832 220 L 831 219 L 710 219 Z M 1030 330 L 1029 331 L 1022 331 L 1012 333 L 999 337 Q 984 343 973 352 Q 956 365 947 386 L 941 404 L 939 415 L 939 427 L 938 428 L 939 446 L 942 462 Q 948 482 960 497 Q 973 512 992 521 L 1011 528 L 1033 532 L 1071 532 L 1072 531 L 1080 531 L 1097 528 L 1119 520 Q 1129 515 1136 507 L 1109 463 L 1092 474 L 1078 479 L 1067 481 L 1042 481 L 1037 480 Q 1024 477 1016 469 L 1008 459 L 1005 448 L 1007 446 L 1144 446 L 1144 415 L 1141 398 Q 1135 375 1122 361 Q 1113 350 1101 343 L 1082 335 L 1057 330 L 1030 330 Z M 1296 330 L 1279 334 L 1259 346 L 1248 358 L 1247 361 L 1246 342 L 1245 335 L 1176 335 L 1174 337 L 1174 527 L 1245 527 L 1245 429 L 1248 415 L 1256 401 Q 1264 390 1279 387 L 1295 387 L 1300 388 Q 1311 391 1319 399 L 1346 341 Q 1335 335 1321 331 Q 1316 332 1315 330 L 1296 330 Z M 1436 330 L 1435 331 L 1428 331 L 1418 333 L 1399 339 Q 1385 345 1376 354 L 1366 367 L 1362 382 Q 1361 408 1373 421 Q 1384 433 1401 440 L 1412 444 L 1432 448 L 1444 452 L 1451 456 L 1455 463 Q 1456 469 1454 473 L 1450 477 L 1437 482 L 1413 482 L 1404 480 L 1388 473 L 1376 465 L 1373 468 L 1357 503 L 1352 511 L 1358 515 L 1374 523 L 1393 529 L 1412 531 L 1413 532 L 1448 532 L 1449 531 L 1468 529 L 1487 523 Q 1499 518 1509 509 Q 1516 501 1521 491 L 1525 473 L 1524 453 L 1517 437 Q 1508 425 1495 418 Q 1474 409 1449 405 L 1436 399 L 1430 393 L 1431 384 L 1440 377 L 1449 375 L 1465 375 L 1476 377 L 1500 388 L 1522 347 L 1515 342 L 1501 337 L 1479 332 L 1465 331 L 1464 330 L 1436 330 Z M 1648 330 L 1647 331 L 1640 331 L 1630 333 L 1617 337 L 1604 343 L 1588 354 Q 1572 367 1562 386 L 1555 405 L 1552 421 L 1552 443 L 1555 460 Q 1561 480 1573 495 Q 1585 509 1603 519 L 1624 528 L 1645 532 L 1675 532 L 1696 528 Q 1716 521 1732 509 Q 1746 497 1755 481 L 1763 461 L 1766 446 L 1766 419 L 1762 400 Q 1756 380 1744 367 Q 1728 347 1703 337 L 1680 331 Q 1673 333 1672 330 L 1648 330 Z M 1925 330 L 1911 333 L 1900 337 L 1884 347 L 1872 361 L 1871 337 L 1870 335 L 1800 335 L 1800 527 L 1870 527 L 1871 526 L 1871 415 Q 1873 404 1879 397 Q 1887 385 1904 381 L 1920 381 L 1932 386 Q 1943 394 1946 412 L 1946 527 L 2017 527 L 2017 397 L 2012 377 L 2003 361 Q 1989 343 1967 335 L 1945 330 L 1925 330 Z M 2132 330 L 2131 331 L 2120 332 L 2107 336 L 2084 350 Q 2068 363 2059 382 L 2051 405 L 2049 416 L 2049 427 L 2048 428 L 2049 447 L 2052 463 Q 2058 483 2070 499 Q 2081 512 2096 521 L 2114 529 L 2129 532 L 2153 532 L 2167 529 L 2190 516 L 2204 502 L 2206 498 L 2207 498 L 2207 527 L 2277 527 L 2277 335 L 2207 335 L 2206 362 L 2203 358 Q 2192 342 2173 335 L 2152 330 L 2132 330 Z " /><path fill="rgb(0,0,0)" stroke="rgb(0,0,0)" stroke-width="1" opacity="0" d="M 43.5 28 L 54.5 28 L 62.5 30 L 85.5 40 L 103.5 52 L 131.5 74 L 156.5 62 L 181.5 54 L 215.5 46 L 241.5 41 L 249.5 41 L 250.5 40 L 279.5 39 L 280.5 38 L 305.5 38 L 306.5 39 L 324.5 39 L 325.5 40 L 342.5 41 L 392.5 51 L 416.5 58 L 449.5 74 L 452.5 74 L 498.5 40 L 520.5 30 L 536.5 28 Q 544.6 29.4 548 35.5 L 554 51.5 L 555 74.5 L 554 75.5 L 554 91.5 L 552 94.5 L 552 100.5 L 550 103.5 L 548 116.5 L 540 131.5 L 540 134 Q 537 132.8 538 136.5 Q 530.7 149.2 520 158.5 Q 517.2 160.2 518 165.5 L 526 181.5 L 526 185.5 L 528 187.5 L 528 191.5 L 532 201.5 L 532 208.5 L 534 211.5 L 534 220.5 L 536 223.5 Q 534.7 231.8 538 235.5 L 538 245.5 Q 541.8 248.7 540 257.5 L 542 260.5 L 542 278.5 L 544 282.5 L 544 297.5 L 546 301.5 L 546 323.5 L 542 330 L 540 330 L 540 332 L 538 332 L 538 334 L 536 334 L 536 336 L 534 336 L 534 338 L 532 338 L 532 340 Q 529.3 338.9 530 341.5 L 510 362.5 L 510 364 L 508 364 L 508 366 L 506 366 L 506 368 L 504 368 L 504 370 L 502 370 L 502 372 Q 499.3 370.9 500 373.5 L 486 388.5 L 486 390 L 484 390 L 484 392 L 482 392 L 482 394 L 480 394 L 480 396 L 478 396 L 478 398 L 476 398 L 476 400 L 474 400 L 474 402 L 472 402 L 472 404 L 470 404 L 470 406 L 468 406 L 468 408 L 466 408 L 466 410 L 464 410 L 464 412 Q 461.3 410.9 462 413.5 L 438 438.5 L 438 440 Q 435.3 438.9 436 441.5 L 430 452.5 L 430 457.5 Q 427.2 459.2 428 464.5 L 426 466.5 L 424 475.5 L 422 477.5 L 422 481.5 L 420 483.5 L 420 487.5 L 414 499.5 Q 415 504.5 412 505.5 L 412 510.5 L 406 522.5 L 406 526.5 Q 403 527.8 404 532 Q 401.3 530.9 402 533.5 L 396.5 538 L 394 538 L 394 540 Q 388.7 538.8 389.5 542 L 386.5 542 L 380.5 546 L 378 546 L 378 548 L 374 548 Q 375.3 551 371.5 550 L 351.5 560 L 346.5 564 L 318.5 578 L 316 578 Q 317.3 581.3 312.5 580 L 302.5 586 L 300 586 Q 301.3 589.3 296.5 588 Q 295.3 590.3 290.5 589 L 182 535 L 165 488.5 L 152 445.5 L 140 430 Q 137.3 431.1 138 428.5 L 110 399.5 L 110 398 Q 107.3 399.1 108 396.5 L 76 363.5 L 76 362 Q 73.3 363.1 74 360.5 L 44 329.5 L 44 328 Q 41.3 329.1 42 326.5 L 39 323.5 L 39 305.5 L 40 304.5 L 40 293.5 L 41 292.5 L 43 265.5 L 45 256.5 L 45 247.5 L 49 229.5 L 51 210.5 L 58 182.5 L 67 160.5 Q 48.3 144.2 38 119.5 L 34 107.5 L 30 87.5 L 29 55.5 L 32 42.5 Q 35.1 34.1 41.5 29 L 43.5 28 Z M 335 90 Q 325 93 320 100 Q 321 103 318 102 Q 319 106 316 109 L 316 118 L 320 127 Q 325 133 334 135 L 342 135 L 351 132 Q 358 127 361 118 Q 363 106 358 101 Q 352 89 335 90 Z M 238 92 L 233 95 Q 225 100 223 111 L 224 122 L 227 128 Q 232 134 242 136 Q 254 137 260 131 Q 265 127 268 120 Q 270 104 263 99 L 254 92 L 238 92 Z M 377 163 L 376 164 L 368 164 L 362 168 Q 359 167 360 170 L 358 170 L 356 178 L 354 180 L 354 193 L 356 195 L 356 198 Q 359 197 358 201 Q 362 206 371 208 Q 383 209 390 203 Q 396 198 398 189 L 398 181 L 394 172 L 385 164 Q 378 166 377 163 Z M 201 164 L 197 166 L 190 173 L 186 184 L 186 190 L 190 199 Q 194 205 203 208 Q 217 209 224 202 L 229 196 L 231 189 L 229 177 L 223 168 Q 219 169 220 166 Q 217 167 216 164 L 201 164 Z M 287 164 L 280 168 Q 277 167 278 170 L 274 173 Q 275 175 272 174 Q 273 177 270 179 L 270 193 L 274 201 Q 279 207 288 209 L 296 209 L 305 205 Q 312 201 314 193 Q 316 179 311 173 Q 307 167 300 164 L 287 164 Z M 109 238 L 106 241 L 116 259 Q 115 261 118 260 Q 122 272 130 281 Q 138 290 150 296 Q 164 304 183 307 L 188 314 L 198 338 L 206 349 L 218 377 L 218 380 L 221 382 L 221 373 L 222 372 L 222 353 L 217 334 L 217 330 L 215 326 L 215 322 L 207 290 L 198 271 L 194 266 L 186 262 L 175 260 L 173 258 L 168 258 L 166 256 L 161 256 L 159 254 L 154 254 L 152 252 L 143 250 L 140 248 L 136 248 L 133 246 L 129 246 L 122 242 L 109 238 Z M 475 238 L 464 244 L 459 244 L 452 248 L 448 248 L 446 250 Q 440 249 439 252 L 434 252 L 432 254 L 427 254 L 425 256 L 420 256 L 418 258 L 412 258 L 410 260 L 396 264 L 394 266 Q 391 265 392 268 L 390 268 L 390 270 L 388 270 L 380 287 L 380 291 Q 377 291 378 296 L 376 298 L 376 304 L 374 306 L 372 321 Q 369 323 370 329 L 368 331 L 368 336 L 366 339 L 366 346 L 364 349 L 364 358 L 362 361 L 362 371 L 365 382 L 372 362 L 381 344 L 387 336 L 400 307 L 412 305 L 430 299 Q 442 293 452 284 L 461 273 L 480 239 L 475 238 Z M 313 420 L 312 421 L 301 421 L 300 422 L 235 422 L 230 421 L 229 424 L 237 432 Q 239 431 238 434 L 240 434 L 246 443 L 274 473 Q 273 475 276 474 L 276 476 L 278 476 L 292 493 L 356 423 L 354 420 L 313 420 Z " /><path fill="rgb(0,0,0)" stroke="rgb(0,0,0)" stroke-width="1" opacity="0" d="M 0.5 76 Q 3.4 80.2 2 88.5 L 4 91.5 L 4 97.5 L 6 100.5 L 6 105.5 L 8 108.5 L 10 117.5 L 18 132.5 L 18 135.5 L 26 147.5 L 26 150 Q 29 148.8 28 152.5 L 30 156 Q 33 154.8 32 158.5 Q 35.8 160.3 34 167.5 Q 31 169.5 32 175.5 L 30 177.5 L 30 185.5 Q 26.3 187.2 28 194.5 L 26 196.5 L 26 201.5 L 24 203.5 Q 25.2 210.2 22 212.5 Q 23.5 221.5 20 225.5 L 20 237.5 L 18 240.5 Q 19.8 250.8 16 255.5 L 16 271.5 L 14 275.5 L 14 300.5 L 12 305.5 L 12 333.5 L 20 344 L 22 344 L 22 346 Q 24.7 344.9 24 347.5 L 46 370.5 L 46 372 Q 48.7 370.9 48 373.5 L 90 416.5 L 90 418 L 92 418 L 92 420 Q 94.7 418.9 94 421.5 L 116 444.5 L 116 446 L 118 446 L 118 448 L 120 448 L 120 450 L 122 450 L 122 452 Q 124.7 450.9 124 453.5 L 128 459.5 L 128 464.5 L 130 466.5 L 130 471.5 L 132 473.5 L 134 484.5 L 136 486.5 L 138 496.5 L 140 498.5 L 142 507.5 L 144 509.5 L 146 519.5 L 150 526.5 L 150 530.5 L 152 532.5 L 156 545.5 L 160 552 L 162 552 L 162 554 Q 164.7 552.9 164 555.5 L 170.5 561 L 183.5 568 L 291 620.5 L 0 621 L 0.5 76 Z " /><path fill="rgb(0,0,0)" stroke="rgb(0,0,0)" stroke-width="1" opacity="0" d="M 779 274 L 809.5 274 L 810.5 275 L 821.5 276 Q 835.6 279.4 844 288.5 L 851 300.5 L 852 305.5 L 852 325.5 Q 849.2 338.7 840.5 346 Q 832.4 353.4 819.5 356 Q 814.8 354.8 813.5 357 L 779 357 L 779 274 Z " /><path fill="rgb(0,0,0)" stroke="rgb(0,0,0)" stroke-width="1" opacity="0" d="M 2697.5 279 L 2721.5 279 L 2740.5 284 Q 2761.2 292.8 2774 309.5 Q 2785.2 322.8 2791 341.5 L 2795 364.5 L 2795 380.5 L 2794 381.5 L 2794 390.5 L 2792 400.5 L 2785 419.5 Q 2776.1 437.1 2761.5 449 Q 2749.2 460.2 2730.5 465 L 2719.5 466 L 2718.5 467 L 2700.5 467 Q 2698.8 464.3 2692.5 466 L 2676.5 461 L 2662.5 453 L 2648 441 L 2636 423.5 L 2627 401.5 L 2624 384.5 L 2624 360.5 L 2628 340.5 L 2637 320.5 Q 2644.5 307.5 2655.5 298 L 2673.5 286 L 2686.5 281 L 2697.5 279 Z " /><path fill="rgb(0,0,0)" stroke="rgb(0,0,0)" stroke-width="1" opacity="0" d="M 1042.5 377 L 1056.5 379 Q 1066.2 382.8 1072 390.5 Q 1077.5 397.9 1078 409 L 1007.5 409 Q 1006.5 409 1007 404.5 Q 1010.3 390.8 1020.5 384 L 1033.5 378 L 1041.5 378 L 1042.5 377 Z " /><path fill="rgb(0,0,0)" stroke="rgb(0,0,0)" stroke-width="1" opacity="0" d="M 2154.5 386 Q 2169.4 384.1 2178.5 388 Q 2189.3 392.2 2196 400.5 L 2204 414.5 L 2206 422.5 L 2206 439.5 Q 2202.3 459.3 2188.5 469 Q 2178.2 477.2 2159.5 477 L 2145.5 474 L 2130 464 L 2124 455.5 L 2119 443.5 L 2118 438.5 L 2118 423.5 Q 2121.5 404.5 2134.5 395 Q 2142.4 388.4 2154.5 386 Z " /><path fill="rgb(0,0,0)" stroke="rgb(0,0,0)" stroke-width="1" opacity="0" d="M 1656.5 388 L 1670.5 389 L 1676.5 391 L 1690 401.5 Q 1701.5 414 1699 440.5 L 1696 451.5 L 1689 463 L 1682.5 468 L 1672.5 473 L 1667.5 474 L 1652.5 474 Q 1636.1 470.9 1628 459.5 Q 1618 447.5 1620 423.5 Q 1623.4 404.4 1636.5 395 L 1643.5 391 L 1656.5 388 Z " /><path fill="rgb(254,183,0)" stroke="rgb(254,183,0)" stroke-width="1" opacity="0.996078431372549" d="M 40.5 0 L 58.5 0 Q 61.8 3.2 69.5 2 L 80.5 6 L 86.5 10 L 89.5 10 L 105.5 20 L 108 20 Q 106.8 23 110.5 22 L 140.5 43 L 145.5 42 L 151.5 38 L 155.5 38 L 157.5 36 L 161.5 36 L 169.5 32 L 174.5 32 Q 176.2 29.2 181.5 30 L 189.5 26 L 194.5 26 L 196.5 24 L 201.5 24 L 203.5 22 Q 210 23.5 211.5 20 L 219.5 20 L 221.5 18 Q 228.9 19.4 231.5 16 L 239.5 16 L 242.5 14 Q 254.4 15.9 260.5 12 L 324.5 12 L 329.5 14 L 342.5 14 L 346.5 16 L 355.5 16 L 359.5 18 L 366.5 18 Q 368.8 21.2 375.5 20 L 378.5 22 L 384.5 22 L 387.5 24 L 391.5 24 L 394.5 26 L 415.5 32 L 417.5 34 L 420.5 34 L 435.5 40 L 437.5 42 L 445.5 44 Q 446.6 41.3 450 42 L 450 40 L 452 40 L 452 38 L 454 38 Q 452.9 35.3 455.5 36 L 462 32 Q 460.9 29.3 463.5 30 L 480.5 18 L 490 14 L 490 12 Q 495.3 13.3 494.5 10 L 497.5 10 L 499.5 8 L 507.5 6 L 509.5 4 L 513.5 4 L 515.5 2 Q 523.2 3.2 526.5 0 L 542.5 0 L 556.5 6 L 568 16.5 Q 576.8 28.7 581 45.5 L 581 50.5 L 583 57.5 L 583 72.5 L 582 73.5 L 581 90.5 L 577 107.5 Q 567.6 137.1 551 159.5 L 551 168.5 L 561 206.5 L 565 236.5 L 566 237.5 L 566 243.5 L 567 244.5 L 568 260.5 L 569 261.5 L 569 272.5 L 570 273.5 L 570 283.5 L 571 284.5 L 573 333.5 L 459 454.5 L 457 458.5 L 456 466.5 L 440 509.5 L 431 538.5 Q 425.9 551.4 415.5 559 L 291.5 621 L 183.5 568 L 170.5 561 L 164 555.5 L 160 550.5 L 156 545.5 L 156 542.5 L 150 530.5 L 150 526.5 L 146 519.5 L 144 509.5 L 142 507.5 L 140 498.5 L 138 496.5 L 138 492.5 L 136 490.5 L 136 486.5 L 134 484.5 L 132 473.5 L 130 471.5 L 130 466.5 L 128 464.5 L 128 459.5 L 124 452 L 122 452 L 122 450 L 120 450 L 120 448 L 118 448 L 118 446 Q 115.3 447.1 116 444.5 Q 103.1 433.5 94 420 L 92 420 L 92 418 Q 89.3 419.1 90 416.5 Q 66.2 396.1 48 372 Q 45.3 373.1 46 370.5 Q 32.9 359.6 24 346 L 22 346 L 22 344 Q 19.3 345.1 20 342.5 L 12 333.5 L 12 305.5 L 14 300.5 L 14 275.5 L 16 271.5 L 16 255.5 Q 19.8 250.8 18 240.5 L 20 237.5 L 20 225.5 L 22 221.5 L 22 212.5 Q 25.2 210.2 24 203.5 L 26 201.5 Q 24.8 195.8 28 194.5 L 28 187.5 L 30 185.5 L 30 177.5 L 32 175.5 Q 31 169.5 34 167.5 L 34 160.5 Q 31.3 159.4 32 156 Q 29.3 157.1 30 154.5 Q 27.3 153.4 28 150 Q 25 151.3 26 147.5 L 18 135.5 L 18 132.5 L 12 122.5 L 12 119.5 L 10 117.5 L 10 114.5 L 6 105.5 Q 7 99.5 4 97.5 L 4 91.5 L 2 88.5 L 2 79.5 L 0 75.5 L 0 61.5 L 2 57.5 L 2 49.5 L 4 46.5 L 4 39.5 Q 7 38.5 6 33.5 L 18 14 L 20 14 L 20 12 L 22 12 Q 20.9 9.3 23.5 10 Q 24.9 5.3 30 6 Q 28.8 3 32.5 4 L 40.5 0 Z M 44 28 L 42 29 Q 35 34 32 43 L 29 56 L 30 88 L 34 108 L 38 120 Q 48 144 67 161 L 58 183 L 51 211 L 49 230 L 45 248 L 45 257 L 43 266 L 41 293 L 40 294 L 40 305 L 39 306 L 39 324 L 42 327 Q 41 329 44 328 L 44 330 L 74 361 Q 73 363 76 362 L 76 364 L 108 397 Q 107 399 110 398 L 110 400 L 138 429 Q 137 431 140 430 L 152 446 L 165 489 L 182 535 L 291 589 Q 295 590 297 588 Q 301 589 300 586 L 303 586 L 313 580 Q 317 581 316 578 L 319 578 L 347 564 L 352 560 L 372 550 Q 375 551 374 548 L 378 548 L 378 546 L 381 546 L 387 542 L 390 542 Q 389 539 394 540 L 394 538 L 397 538 L 402 534 Q 401 531 404 532 Q 403 528 406 527 L 406 523 L 412 511 L 412 506 Q 415 505 414 500 L 420 488 L 420 484 L 422 482 L 422 478 L 424 476 L 426 467 L 428 465 Q 427 459 430 458 L 430 453 L 436 442 Q 435 439 438 440 L 438 439 L 462 414 Q 461 411 464 412 L 464 410 L 466 410 L 466 408 L 468 408 L 468 406 L 470 406 L 470 404 L 472 404 L 472 402 L 474 402 L 474 400 L 476 400 L 476 398 L 478 398 L 478 396 L 480 396 L 480 394 L 482 394 L 482 392 L 484 392 L 484 390 L 486 390 L 486 389 L 500 374 Q 499 371 502 372 L 502 370 L 504 370 L 504 368 L 506 368 L 506 366 L 508 366 L 508 364 L 510 364 L 510 363 L 530 342 Q 529 339 532 340 L 532 338 L 534 338 L 534 336 L 536 336 L 536 334 L 538 334 L 538 332 L 540 332 L 540 330 L 542 330 L 546 324 L 546 302 L 544 298 L 544 283 L 542 279 L 542 261 L 540 258 Q 542 249 538 246 L 538 236 Q 535 232 536 224 L 534 221 L 534 212 L 532 209 L 532 202 L 528 192 L 528 188 L 526 186 L 526 182 L 518 166 Q 517 160 520 159 Q 531 149 538 137 Q 537 133 540 134 L 540 132 L 548 117 L 550 104 L 552 101 L 552 95 L 554 92 L 554 76 L 555 75 L 554 52 L 548 36 Q 545 29 537 28 L 521 30 L 499 40 L 453 74 L 450 74 L 417 58 L 393 51 L 343 41 L 326 40 L 325 39 L 307 39 L 306 38 L 281 38 L 280 39 L 251 40 L 250 41 L 242 41 L 216 46 L 182 54 L 157 62 L 132 74 L 104 52 L 86 40 L 63 30 L 55 28 L 44 28 Z " /><path fill="rgb(254,183,0)" stroke="rgb(254,183,0)" stroke-width="1" opacity="0.996078431372549" d="M 334.5 90 Q 352.2 89.3 358 100.5 Q 362.5 106 361 117.5 Q 358.2 127.3 350.5 132 L 341.5 135 L 333.5 135 Q 324.6 132.9 320 126.5 L 316 117.5 L 316 108.5 Q 318.8 106.5 318 102 Q 321 103.3 320 99.5 Q 325.4 92.9 334.5 90 Z " /><path fill="rgb(254,183,0)" stroke="rgb(254,183,0)" stroke-width="1" opacity="0.996078431372549" d="M 237.5 92 L 253.5 92 L 263 98.5 Q 270.1 104.4 268 119.5 Q 265.4 126.9 259.5 131 Q 253.7 136.7 241.5 136 Q 232.1 133.9 227 127.5 L 224 121.5 L 223 110.5 Q 224.6 99.6 232.5 95 L 237.5 92 Z " /><path fill="rgb(254,183,0)" stroke="rgb(254,183,0)" stroke-width="1" opacity="0.996078431372549" d="M 376.5 163 Q 378.3 165.8 384.5 164 L 394 171.5 L 398 180.5 L 398 188.5 Q 395.9 197.9 389.5 203 Q 383 208.5 370.5 208 Q 362.2 206.3 358 200.5 Q 359 196.8 356 198 L 356 194.5 L 354 192.5 L 354 179.5 L 356 177.5 L 358 170 L 360 170 Q 358.9 167.3 361.5 168 L 367.5 164 L 375.5 164 L 376.5 163 Z " /><path fill="rgb(254,183,0)" stroke="rgb(254,183,0)" stroke-width="1" opacity="0.996078431372549" d="M 200.5 164 L 215.5 164 Q 216.6 166.7 220 166 Q 218.8 169 222.5 168 L 229 176.5 L 231 188.5 L 229 195.5 L 223.5 202 Q 216.8 208.8 202.5 208 Q 194.4 205.1 190 198.5 L 186 189.5 L 186 183.5 L 190 172.5 L 196.5 166 L 200.5 164 Z " /><path fill="rgb(254,183,0)" stroke="rgb(254,183,0)" stroke-width="1" opacity="0.996078431372549" d="M 286.5 164 L 299.5 164 Q 306.9 166.6 311 172.5 Q 315.9 179 314 192.5 Q 311.6 201.1 304.5 205 L 295.5 209 L 287.5 209 Q 278.6 206.9 274 200.5 L 270 192.5 L 270 178.5 Q 272.7 177.4 272 174 Q 274.7 175.1 274 172.5 L 278 170 Q 276.9 167.3 279.5 168 L 286.5 164 Z " /><path fill="rgb(254,183,0)" stroke="rgb(254,183,0)" stroke-width="1" opacity="0.996078431372549" d="M 2322 206 L 2391.5 206 L 2392 206.5 L 2392 226.5 L 2393 227.5 L 2393 527 L 2322.5 527 L 2322 526.5 L 2322 206 Z " /><path fill="rgb(254,183,0)" stroke="rgb(254,183,0)" stroke-width="1" opacity="0.996078431372549" d="M 2693.5 214 L 2725.5 214 Q 2727.2 216.8 2733.5 215 L 2757.5 220 L 2771.5 225 Q 2806.2 239.8 2829 266.5 Q 2851.5 291.5 2862 328.5 L 2866 349.5 L 2866 357.5 L 2867 358.5 L 2867 388.5 L 2866 389.5 L 2866 396.5 L 2863 413.5 L 2854 440.5 Q 2839.9 472.4 2815.5 494 Q 2790.9 516.4 2754.5 527 L 2726.5 532 L 2692.5 532 L 2691.5 531 L 2683.5 531 L 2682.5 530 L 2671.5 529 L 2645.5 521 Q 2612.2 506.8 2590 481.5 Q 2570.8 459.7 2560 429.5 L 2555 411.5 L 2553 394.5 L 2552 393.5 L 2551 364.5 L 2552 363.5 L 2552 352.5 L 2555 335.5 L 2564 307.5 Q 2579.3 272.8 2606.5 250 Q 2623.6 235.6 2645.5 226 L 2665.5 219 L 2693.5 214 Z M 2698 279 L 2687 281 L 2674 286 L 2656 298 Q 2645 308 2637 321 L 2628 341 L 2624 361 L 2624 385 L 2627 402 L 2636 424 L 2648 441 L 2663 453 L 2677 461 L 2693 466 Q 2699 464 2701 467 L 2719 467 L 2720 466 L 2731 465 Q 2749 460 2762 449 Q 2776 437 2785 420 L 2792 401 L 2794 391 L 2794 382 L 2795 381 L 2795 365 L 2791 342 Q 2785 323 2774 310 Q 2761 293 2741 284 L 2722 279 L 2698 279 Z " /><path fill="rgb(254,183,0)" stroke="rgb(254,183,0)" stroke-width="1" opacity="0.996078431372549" d="M 3004.5 214 L 3036.5 214 L 3037.5 215 L 3046.5 215 L 3047.5 216 L 3058.5 217 L 3090.5 227 Q 3106.3 233.3 3119 242.5 L 3085.5 298 Q 3069.6 286.9 3049.5 280 L 3035.5 277 L 3016.5 277 L 3000.5 281 L 2991 287 L 2987 293.5 L 2986 306.5 L 2989 314.5 L 2994 321 Q 3005.2 329.9 3020.5 336 L 3056.5 350 L 3075.5 360 Q 3093.2 370.3 3106 385.5 Q 3116.6 397.9 3122 415.5 L 3125 430.5 L 3125 453.5 L 3120 473.5 Q 3113.6 489.1 3102.5 500 Q 3083.4 518.9 3053.5 527 L 3025.5 532 L 2989.5 532 L 2988.5 531 L 2979.5 531 L 2972.5 529 L 2966.5 529 L 2937.5 521 L 2906.5 507 L 2894 498.5 L 2928.5 440 Q 2951.6 456.4 2982.5 465 L 2998.5 468 L 3021.5 468 L 3033.5 465 L 3046 456.5 Q 3054.3 449.8 3052 432.5 Q 3048.7 420.3 3039.5 414 Q 3027 404.5 3011.5 398 Q 2987.8 390.3 2967.5 379 Q 2948.8 369.2 2935 354.5 Q 2924.9 344.1 2919 329.5 L 2915 312.5 L 2914 294.5 L 2915 293.5 L 2916 279.5 L 2923 261.5 Q 2931.3 247.8 2943.5 238 Q 2957.5 226.5 2976.5 220 L 3004.5 214 Z " /><path fill="rgb(254,183,0)" stroke="rgb(254,183,0)" stroke-width="1" opacity="0.996078431372549" d="M 710 219 L 830.5 219 L 831.5 220 L 840.5 220 L 856.5 223 L 876.5 230 Q 892 237 903 248.5 Q 916.7 261.8 923 282.5 L 927 303.5 L 927 323.5 L 926 324.5 L 925 337.5 L 919 356.5 Q 911.2 373.2 898.5 385 Q 879.2 403.2 848.5 410 L 836.5 411 L 835.5 412 L 779 412 L 779 527 L 710 527 L 710 219 Z M 779 274 L 779 357 L 814 357 Q 815 355 820 356 Q 832 353 841 346 Q 849 339 852 326 L 852 306 L 851 301 L 844 289 Q 836 279 822 276 L 811 275 L 810 274 L 779 274 Z " /><path fill="rgb(254,183,0)" stroke="rgb(254,183,0)" stroke-width="1" opacity="0.996078431372549" d="M 108.5 238 L 121.5 242 L 128.5 246 L 132.5 246 L 135.5 248 L 139.5 248 L 142.5 250 L 151.5 252 L 153.5 254 L 158.5 254 L 160.5 256 L 165.5 256 L 167.5 258 L 172.5 258 L 174.5 260 L 185.5 262 L 193.5 266 L 198 270.5 L 207 289.5 L 215 321.5 L 215 325.5 L 217 329.5 L 217 333.5 L 222 352.5 L 222 371.5 L 221 372.5 L 220.5 382 L 218 379.5 L 218 376.5 L 206 348.5 L 198 337.5 L 188 313.5 L 182.5 307 Q 163.8 303.7 149.5 296 Q 138.2 289.8 130 280.5 Q 121.8 271.9 118 260 Q 115.3 261.1 116 258.5 L 106 240.5 L 108.5 238 Z " /><path fill="rgb(254,183,0)" stroke="rgb(254,183,0)" stroke-width="1" opacity="0.996078431372549" d="M 474.5 238 L 480 238.5 L 461 272.5 L 451.5 284 Q 442.3 293.3 429.5 299 L 411.5 305 L 400 307 L 387 335.5 L 381 343.5 L 372 361.5 L 364.5 382 L 362 370.5 L 362 360.5 L 364 357.5 L 364 348.5 L 366 345.5 L 366 338.5 L 368 335.5 L 368 330.5 L 370 328.5 Q 369 322.5 372 320.5 L 374 305.5 L 376 303.5 L 376 297.5 L 378 295.5 Q 377.3 291.3 380 290.5 L 380 286.5 L 388 270 L 390 270 L 390 268 L 392 268 Q 390.9 265.3 393.5 266 L 395.5 264 L 409.5 260 L 411.5 258 L 417.5 258 L 419.5 256 L 424.5 256 L 426.5 254 L 431.5 254 L 433.5 252 L 438.5 252 Q 440.2 249.2 445.5 250 L 447.5 248 L 451.5 248 L 458.5 244 L 463.5 244 L 474.5 238 Z " /><path fill="rgb(254,183,0)" stroke="rgb(254,183,0)" stroke-width="1" opacity="0.996078431372549" d="M 1029.5 330 L 1056.5 330 L 1081.5 335 L 1100.5 343 Q 1112.9 350.1 1122 360.5 Q 1135.2 375.3 1141 397.5 L 1144 414.5 L 1144 446 L 1006.5 446 L 1005 447.5 L 1008 458.5 L 1015.5 469 Q 1023.6 476.9 1036.5 480 L 1041.5 481 L 1066.5 481 L 1077.5 479 L 1091.5 474 L 1108.5 463 L 1136 506.5 Q 1129 515 1118.5 520 L 1096.5 528 L 1079.5 531 L 1071.5 531 L 1070.5 532 L 1032.5 532 L 1010.5 528 L 991.5 521 Q 972.8 511.7 960 496.5 Q 947.9 482.1 942 461.5 L 939 445.5 L 938 427.5 L 939 426.5 L 939 414.5 L 941 403.5 L 947 385.5 Q 956.1 365.1 972.5 352 Q 983.7 342.7 998.5 337 L 1011.5 333 L 1021.5 331 L 1028.5 331 L 1029.5 330 Z M 1043 377 L 1042 378 L 1034 378 L 1021 384 Q 1010 391 1007 405 Q 1006 409 1008 409 L 1078 409 Q 1078 398 1072 391 Q 1066 383 1057 379 L 1043 377 Z " /><path fill="rgb(254,183,0)" stroke="rgb(254,183,0)" stroke-width="1" opacity="0.996078431372549" d="M 1295.5 330 L 1314.5 330 Q 1315.8 332.3 1320.5 331 Q 1335.2 334.6 1346 341 L 1318.5 399 Q 1311.3 391.2 1299.5 388 L 1294.5 387 L 1278.5 387 Q 1263.8 390.3 1256 400.5 L 1248 414.5 L 1245 428.5 L 1245 527 L 1174 527 L 1174 336.5 L 1175.5 335 L 1245 335 L 1246 341.5 L 1246.5 361 L 1248 357.5 L 1258.5 346 L 1278.5 334 L 1295.5 330 Z " /><path fill="rgb(254,183,0)" stroke="rgb(254,183,0)" stroke-width="1" opacity="0.996078431372549" d="M 1435.5 330 L 1463.5 330 L 1464.5 331 L 1478.5 332 L 1500.5 337 L 1514.5 342 L 1522 346.5 L 1500 388 L 1475.5 377 L 1464.5 375 L 1448.5 375 L 1439.5 377 L 1431 383.5 L 1430 392.5 L 1435.5 399 L 1448.5 405 Q 1474.3 408.7 1494.5 418 Q 1508.3 424.7 1517 436.5 L 1524 452.5 L 1525 472.5 L 1521 490.5 Q 1516.5 501.5 1508.5 509 Q 1499.2 517.7 1486.5 523 L 1467.5 529 L 1448.5 531 L 1447.5 532 L 1412.5 532 L 1411.5 531 L 1392.5 529 L 1373.5 523 L 1357.5 515 L 1352 510.5 L 1357 502.5 L 1373 467.5 L 1375.5 465 L 1387.5 473 L 1403.5 480 L 1412.5 482 L 1436.5 482 L 1449.5 477 L 1454 472.5 Q 1456.3 469.3 1455 462.5 L 1450.5 456 L 1443.5 452 L 1431.5 448 L 1411.5 444 L 1400.5 440 Q 1384 433 1373 420.5 Q 1360.9 407.6 1362 381.5 L 1366 366.5 L 1375.5 354 Q 1385.1 344.6 1398.5 339 L 1417.5 333 L 1427.5 331 L 1434.5 331 L 1435.5 330 Z " /><path fill="rgb(254,183,0)" stroke="rgb(254,183,0)" stroke-width="1" opacity="0.996078431372549" d="M 1647.5 330 L 1671.5 330 Q 1673.3 332.8 1679.5 331 L 1702.5 337 Q 1728 347 1744 366.5 Q 1755.8 380.2 1762 399.5 L 1766 418.5 L 1766 445.5 L 1763 460.5 L 1755 480.5 Q 1745.9 497.4 1731.5 509 Q 1716.4 521.4 1695.5 528 L 1674.5 532 L 1644.5 532 L 1623.5 528 L 1602.5 519 Q 1585.1 509.5 1573 494.5 Q 1561 480 1555 459.5 L 1552 442.5 L 1552 420.5 L 1555 404.5 L 1562 385.5 Q 1571.7 366.7 1587.5 354 L 1603.5 343 L 1616.5 337 L 1629.5 333 L 1639.5 331 L 1646.5 331 L 1647.5 330 Z M 1657 388 L 1644 391 L 1637 395 Q 1623 404 1620 424 Q 1618 448 1628 460 Q 1636 471 1653 474 L 1668 474 L 1673 473 L 1683 468 L 1689 463 L 1696 452 L 1699 441 Q 1702 414 1690 402 L 1677 391 L 1671 389 L 1657 388 Z " /><path fill="rgb(254,183,0)" stroke="rgb(254,183,0)" stroke-width="1" opacity="0.996078431372549" d="M 1924.5 330 L 1944.5 330 L 1966.5 335 Q 1989.4 343.1 2003 360.5 L 2012 376.5 L 2017 396.5 L 2017 527 L 1946 527 L 1946 411.5 Q 1943.3 394.3 1931.5 386 L 1919.5 381 L 1903.5 381 Q 1887.3 384.8 1879 396.5 Q 1873.3 403.8 1871 414.5 L 1871 525.5 L 1869.5 527 L 1800 527 L 1800 335 L 1869.5 335 L 1871 336.5 L 1871.5 361 L 1883.5 347 L 1899.5 337 L 1910.5 333 L 1924.5 330 Z " /><path fill="rgb(254,183,0)" stroke="rgb(254,183,0)" stroke-width="1" opacity="0.996078431372549" d="M 2131.5 330 L 2151.5 330 L 2172.5 335 Q 2191.5 342.5 2203 357.5 L 2205.5 362 L 2207 335 L 2277 335 L 2277 527 L 2207 527 L 2207 497.5 L 2206 497.5 L 2204 501.5 L 2189.5 516 L 2166.5 529 L 2152.5 532 L 2128.5 532 L 2113.5 529 L 2095.5 521 Q 2080.6 511.9 2070 498.5 Q 2058.1 483.4 2052 462.5 L 2049 446.5 L 2048 427.5 L 2049 426.5 L 2049 415.5 L 2051 404.5 L 2059 381.5 Q 2068.5 363 2083.5 350 L 2106.5 336 L 2119.5 332 L 2130.5 331 L 2131.5 330 Z M 2155 386 Q 2142 388 2135 395 Q 2121 404 2118 424 L 2118 439 L 2119 444 L 2124 456 L 2130 464 L 2146 474 L 2160 477 Q 2178 477 2189 469 Q 2202 459 2206 440 L 2206 423 L 2204 415 L 2196 401 Q 2189 392 2179 388 Q 2169 384 2155 386 Z " /><path fill="rgb(254,183,0)" stroke="rgb(254,183,0)" stroke-width="1" opacity="0.996078431372549" d="M 312.5 420 L 353.5 420 L 356 422.5 L 291.5 493 L 278 476 L 276 476 L 276 474 Q 273.3 475.1 274 472.5 L 246 442.5 L 240 434 L 238 434 Q 239.1 431.3 236.5 432 L 229 423.5 L 230 421 L 234.5 422 L 299.5 422 L 300.5 421 L 311.5 421 L 312.5 420 Z " /></svg>